# xmcd
#
# Track frame offsets:
#	150
#	19230
#	35817
#	57600
#	76524
#	90944
#	102877
#	118414
#	134102
#	153393
#
# Disc length: 2277 seconds
#
# Revision: 0
# Processed by: cddbd v1.5.1PL0 Copyright (c) Steve Scherf et al.
# Submitted via: EasyCDDAExtractor 8.0.1.1
#
DISCID=8308e30a
DTITLE=Particia Vonne - Guitars and Castanets
DYEAR=2005
DGENRE=Country
TTITLE0=Joe's Gome Ridin'
TTITLE1=Texas Burning
TTITLE2=La Triana de Gitana
TTITLE3=Rebel Bride
TTITLE4=Lonesome Rider
TTITLE5=Guitarras y Castanuelas
TTITLE6=Long Season
TTITLE7=Fiesta Sangria
TTITLE8=Blood On the Tracks
TTITLE9=Sax Maniac
EXTD=
EXTT0=
EXTT1=
EXTT2=
EXTT3=
EXTT4=
EXTT5=
EXTT6=
EXTT7=
EXTT8=
EXTT9=
PLAYORDER=
